<?xml version="1.0" standalone="no"?>
<!DOCTYPE svg PUBLIC "-//W3C//DTD SVG 20010904//EN"
 "http://www.w3.org/TR/2001/REC-SVG-20010904/DTD/svg10.dtd">
<svg version="1.0" xmlns="http://www.w3.org/2000/svg"
 width="2269.000000pt" height="2269.000000pt" viewBox="0 0 2269.000000 2269.000000"
 preserveAspectRatio="xMidYMid meet">
<metadata>
Created by potrace 1.14, written by Peter Selinger 2001-2017
</metadata>
<g transform="translate(0.000000,2269.000000) scale(0.100000,-0.100000)"
fill="#000000" stroke="none">
<path d="M6120 21390 c-28 -51 -295 -426 -361 -505 -9 -11 -61 -74 -116 -140
-190 -230 -320 -371 -603 -655 -327 -327 -513 -485 -785 -667 -305 -204 -780
-448 -1203 -619 l-153 -61 58 -51 c32 -28 133 -114 226 -191 164 -138 482
-406 522 -440 11 -9 76 -64 145 -121 69 -58 127 -107 130 -110 3 -3 46 -39 95
-80 50 -41 93 -79 97 -85 11 -16 18 -1 24 51 24 214 131 485 272 684 279 393
751 702 1217 799 144 29 180 33 370 36 266 4 449 -24 689 -107 115 -39 392
-172 416 -199 3 -3 28 -20 55 -39 279 -186 503 -463 627 -775 56 -141 79 -220
101 -349 6 -37 17 -70 24 -73 7 -3 66 28 130 69 65 41 123 77 128 80 7 4 10
-116 10 -357 l0 -363 66 0 67 1 0 410 c0 346 2 411 14 418 18 10 321 240 328
248 3 4 18 17 34 29 113 87 526 480 526 501 0 4 -6 8 -12 8 -16 0 -303 97
-365 124 -27 11 -66 28 -88 37 -214 91 -471 241 -735 429 -108 78 -364 278
-407 320 -11 10 -48 43 -83 73 -264 227 -649 629 -880 920 -19 24 -47 58 -61
75 -60 70 -279 372 -383 527 -61 92 -114 168 -118 168 -4 0 -12 -9 -18 -20z"/>
<path d="M5905 18863 c-460 -51 -876 -296 -1150 -678 -103 -143 -216 -387
-250 -537 -55 -248 -63 -424 -30 -648 93 -640 566 -1167 1195 -1334 97 -25
125 -30 260 -45 76 -9 314 -6 360 4 14 2 43 7 65 10 38 4 124 25 240 58 28 8
65 21 83 31 17 9 32 14 32 12 0 -8 155 71 230 117 356 216 639 604 730 1002 7
28 14 59 16 70 17 73 30 229 29 340 -2 146 -15 247 -49 380 -54 218 -152 418
-294 600 -70 91 -203 225 -277 280 -22 16 -42 33 -45 36 -3 3 -41 29 -86 57
-328 204 -684 287 -1059 245z"/>
<path d="M13850 18858 c-25 -5 -108 -25 -185 -44 -77 -19 -149 -37 -160 -39
-138 -30 -625 -200 -792 -276 -23 -10 -44 -19 -47 -19 -18 0 -401 -189 -541
-267 -142 -80 -154 -86 -270 -158 -189 -117 -504 -336 -640 -446 -300 -243
-419 -351 -695 -629 -307 -309 -441 -461 -724 -820 -199 -254 -485 -671 -670
-980 -47 -80 -91 -152 -96 -160 -19 -32 -119 -207 -145 -255 -15 -27 -31 -54
-35 -60 -4 -5 -29 -50 -55 -100 -27 -49 -57 -106 -68 -125 -28 -49 -240 -474
-267 -535 -13 -27 -35 -77 -50 -110 -15 -33 -53 -121 -84 -195 -32 -74 -63
-148 -70 -165 -8 -16 -35 -86 -61 -155 -26 -69 -53 -138 -60 -155 -39 -89
-241 -714 -271 -834 -2 -9 -29 -113 -59 -231 -54 -209 -87 -348 -100 -420 -3
-19 -9 -38 -13 -42 -4 -4 -39 22 -77 58 -39 36 -104 96 -145 132 -41 37 -95
85 -120 108 -75 67 -257 214 -400 322 -74 56 -140 106 -147 112 -31 26 -392
265 -493 326 -446 274 -977 528 -1455 699 -71 25 -154 55 -184 66 -108 40
-546 168 -661 194 -8 2 -53 13 -100 25 -47 12 -96 24 -110 26 -14 3 -61 14
-105 24 -44 10 -91 21 -105 24 -14 2 -90 16 -170 31 -149 28 -160 30 -220 39
-19 3 -44 7 -55 10 -11 2 -40 7 -65 10 -25 3 -54 8 -65 10 -22 4 -87 13 -163
21 -26 3 -58 8 -72 10 -14 3 -52 7 -85 11 -33 3 -67 8 -75 9 -8 2 -51 6 -95
10 -44 4 -88 9 -98 11 -10 2 -55 6 -100 9 -45 4 -89 8 -97 10 -8 2 -62 7 -120
11 -58 3 -121 8 -140 10 -255 25 -1050 25 -1425 0 -99 -7 -241 -18 -265 -21
-14 -2 -59 -7 -100 -10 -41 -4 -84 -9 -95 -10 -11 -1 -32 -3 -47 -4 -34 -1
-36 -12 -5 -27 41 -19 181 -97 280 -156 55 -32 102 -58 105 -58 3 0 22 -10 41
-23 20 -13 97 -61 171 -107 471 -291 917 -620 1295 -955 17 -15 44 -39 62 -54
324 -277 931 -895 1288 -1311 49 -58 93 -107 96 -110 6 -5 242 -288 296 -355
179 -221 467 -595 623 -809 47 -65 99 -136 116 -159 188 -255 686 -999 859
-1283 11 -18 42 -68 69 -111 83 -133 318 -525 349 -583 16 -30 36 -62 43 -71
8 -8 14 -18 14 -22 0 -3 14 -30 31 -59 18 -29 43 -73 57 -98 32 -57 56 -100
83 -148 12 -20 35 -62 52 -92 16 -30 45 -84 65 -120 19 -36 47 -87 62 -115
519 -957 1048 -2109 1417 -3085 30 -80 65 -172 78 -205 31 -80 144 -390 161
-440 31 -95 125 -359 129 -364 3 -2 5 -1 5 2 0 4 9 49 21 100 14 60 21 128 21
197 1 107 -11 479 -17 560 -2 25 -6 92 -10 150 -3 58 -8 121 -10 140 -3 19 -7
69 -10 110 -3 41 -7 91 -10 110 -2 19 -7 60 -10 90 -13 112 -30 256 -40 325
-2 17 -7 53 -11 80 -3 28 -8 59 -10 70 -2 11 -11 63 -20 115 -8 52 -17 106
-20 120 -2 14 -6 34 -8 45 -2 11 -21 101 -41 200 -20 99 -39 189 -42 200 -2
11 -9 39 -13 62 -5 23 -17 71 -26 105 -9 35 -18 71 -20 81 -1 10 -17 73 -34
140 -155 607 -386 1290 -642 1897 -85 201 -107 252 -197 443 -28 59 -51 110
-51 113 0 7 -185 376 -260 519 -409 781 -913 1549 -1469 2240 -177 220 -413
499 -455 540 -6 6 -29 30 -50 55 -37 42 -178 196 -296 320 -29 30 -125 128
-213 218 l-162 163 130 -46 c72 -26 135 -48 140 -49 6 -2 23 -8 38 -14 16 -7
31 -12 33 -12 18 0 418 -164 604 -248 116 -52 543 -263 600 -297 14 -8 102
-58 195 -111 240 -136 677 -413 775 -491 8 -7 78 -58 155 -114 200 -145 594
-462 696 -559 8 -8 51 -46 94 -85 482 -430 1023 -1024 1450 -1593 21 -28 41
-52 42 -52 2 0 1 12 -2 28 -2 15 -7 65 -11 112 -3 47 -7 101 -9 120 -26 264
-26 1269 0 1409 1 9 6 62 9 118 4 55 9 112 11 125 4 29 13 100 20 158 6 50 6
48 35 215 11 66 22 127 25 135 2 8 6 31 9 50 5 29 23 118 51 250 15 68 39 171
52 220 8 30 16 64 18 75 2 11 20 81 40 155 20 74 38 142 40 150 34 129 119
406 196 635 217 643 482 1261 789 1840 106 201 218 400 292 518 26 43 48 80
48 82 0 17 352 551 485 735 64 89 260 350 296 395 161 198 254 311 259 315 4
3 40 43 80 90 40 47 107 123 149 170 107 118 558 571 665 666 48 43 98 88 110
99 12 11 51 45 86 75 35 30 74 65 87 77 13 11 43 36 66 55 23 18 57 47 77 64
262 228 947 726 1197 871 42 25 29 28 -47 11z"/>
<path d="M16688 15665 c-2 -2 -82 -6 -178 -9 -96 -4 -197 -8 -225 -10 -27 -2
-93 -7 -145 -10 -53 -4 -109 -9 -125 -10 -17 -2 -68 -7 -115 -11 -125 -11
-159 -15 -280 -30 -19 -3 -55 -7 -80 -10 -65 -8 -261 -34 -286 -39 -12 -3 -39
-7 -60 -10 -108 -17 -287 -48 -349 -61 -38 -8 -83 -16 -100 -19 -16 -3 -41 -8
-55 -11 -14 -3 -56 -12 -95 -20 -86 -18 -81 -17 -240 -55 -71 -17 -138 -33
-148 -35 -54 -12 -270 -69 -317 -83 -30 -8 -59 -17 -65 -18 -67 -13 -694 -214
-815 -261 -8 -3 -64 -24 -125 -46 -144 -52 -225 -82 -250 -92 -11 -4 -121 -48
-244 -97 -198 -79 -405 -164 -496 -203 -16 -7 -149 -64 -295 -125 -395 -168
-726 -320 -1135 -521 -58 -28 -105 -53 -105 -54 0 -2 8 -1 18 1 9 2 53 11 97
19 44 9 170 39 280 67 110 27 211 52 225 55 14 2 59 13 100 23 41 10 86 21
100 24 14 3 68 14 120 26 52 12 102 23 110 25 8 2 139 28 290 59 240 48 313
62 430 82 14 3 75 13 135 24 157 28 158 28 277 45 60 9 118 18 130 20 12 3 56
9 98 15 42 6 87 13 101 15 13 3 53 8 89 11 36 3 67 7 70 9 3 2 34 6 70 10 36
4 74 9 85 11 11 2 44 6 72 9 29 3 72 7 95 10 107 13 136 16 183 20 28 2 73 6
100 9 28 3 75 8 105 11 30 3 75 7 100 10 25 2 74 7 110 10 36 3 92 7 125 10
33 3 101 8 150 10 50 3 113 7 140 10 28 2 113 7 190 11 77 4 160 8 185 9 402
21 1357 21 1725 0 33 -2 82 -5 108 -6 46 -3 48 -4 42 -28 -4 -14 -9 -35 -11
-46 -2 -11 -13 -56 -23 -100 -11 -44 -22 -91 -25 -105 -3 -14 -15 -65 -27
-115 -25 -109 -18 -78 -74 -320 -25 -110 -48 -216 -51 -235 -3 -19 -8 -38 -9
-41 -3 -4 -65 -279 -81 -354 -2 -11 -17 -81 -33 -155 -16 -74 -32 -146 -35
-160 -2 -14 -43 -207 -90 -430 -47 -223 -87 -416 -90 -430 -4 -23 -62 -309
-72 -355 -2 -11 -7 -36 -10 -55 -3 -19 -9 -51 -14 -70 -5 -19 -12 -51 -15 -70
-3 -19 -10 -55 -15 -80 -5 -25 -12 -56 -14 -70 -6 -30 -133 -703 -141 -745 -3
-16 -12 -66 -20 -110 -15 -81 -21 -109 -30 -155 -2 -14 -7 -41 -10 -60 -3 -19
-7 -46 -10 -60 -3 -14 -7 -38 -10 -55 -3 -16 -7 -40 -9 -51 -2 -12 -7 -37 -10
-55 -3 -19 -7 -43 -10 -54 -2 -11 -7 -40 -11 -65 -4 -25 -9 -54 -11 -65 -3
-11 -18 -99 -35 -195 -16 -96 -32 -186 -35 -200 -2 -14 -7 -41 -10 -60 -3 -19
-10 -62 -16 -95 -6 -33 -12 -69 -14 -80 -6 -42 -15 -101 -20 -125 -3 -14 -7
-41 -10 -60 -2 -19 -6 -46 -9 -60 -10 -47 -13 -65 -19 -115 -4 -27 -9 -57 -11
-65 -4 -14 -6 -31 -21 -127 -3 -21 -9 -63 -14 -93 -5 -30 -12 -73 -15 -95 -3
-22 -8 -51 -10 -65 -3 -14 -7 -41 -10 -60 -3 -19 -10 -60 -15 -90 -5 -30 -12
-75 -15 -100 -3 -25 -8 -52 -10 -60 -2 -8 -6 -37 -10 -65 -3 -27 -10 -75 -15
-105 -9 -53 -15 -92 -26 -175 -3 -22 -8 -51 -10 -65 -4 -24 -71 -483 -80 -545
-2 -16 -6 -43 -8 -60 -3 -16 -10 -68 -16 -115 -12 -88 -19 -138 -25 -180 -2
-14 -7 -47 -10 -75 -4 -27 -8 -61 -10 -75 -2 -14 -9 -62 -15 -107 -6 -46 -13
-97 -16 -115 -2 -18 -7 -55 -10 -83 -3 -27 -8 -52 -10 -54 -2 -3 -55 -6 -117
-7 -158 -4 -435 -14 -477 -18 -19 -2 -78 -7 -130 -11 -52 -3 -106 -8 -120 -9
-14 -2 -60 -7 -103 -11 -43 -3 -88 -8 -100 -10 -12 -2 -44 -6 -72 -10 -159
-20 -322 -45 -515 -80 -19 -3 -54 -10 -78 -16 -23 -5 -59 -12 -80 -15 -20 -3
-75 -15 -122 -26 -47 -11 -96 -22 -110 -24 -62 -12 -409 -107 -540 -148 -365
-114 -642 -220 -1095 -419 -71 -31 -484 -238 -585 -293 -102 -56 -331 -187
-380 -218 -19 -13 -98 -63 -175 -112 -267 -169 -550 -372 -805 -578 -69 -56
-127 -103 -130 -106 -3 -3 -36 -32 -75 -65 -38 -33 -75 -64 -81 -70 -6 -5 -53
-48 -105 -95 -103 -93 -442 -430 -529 -526 -120 -132 -219 -247 -287 -330 -18
-21 -56 -68 -85 -104 -54 -65 -169 -215 -247 -323 l-43 -59 34 6 c18 3 44 8
58 10 36 6 240 37 273 42 32 4 100 13 137 19 53 8 291 38 400 50 30 4 66 8 80
10 14 2 59 6 100 10 41 4 86 8 100 10 14 2 63 6 110 10 47 4 101 8 120 10 19
2 78 6 130 10 52 3 120 8 150 10 64 5 164 11 375 22 181 9 1285 9 1550 0 221
-8 356 -14 475 -22 207 -14 417 -31 480 -39 19 -3 62 -8 95 -11 33 -4 74 -8
90 -10 17 -3 82 -11 145 -20 63 -8 124 -16 135 -18 11 -3 43 -8 70 -11 84 -12
140 -22 345 -60 91 -17 402 -86 410 -91 4 -2 20 -7 36 -9 16 -3 79 -19 139
-36 61 -17 120 -32 132 -35 12 -3 82 -23 155 -46 502 -152 1007 -353 1490
-595 193 -97 508 -269 605 -331 29 -18 57 -33 63 -33 5 0 10 -4 10 -10 0 -5 4
-10 10 -10 5 0 41 -20 79 -45 38 -25 72 -45 75 -45 5 0 131 187 146 215 3 6
30 48 61 95 31 47 82 126 115 175 32 50 61 95 64 100 3 6 63 98 134 205 71
107 178 271 240 365 132 202 1069 1607 1211 1815 54 80 135 199 180 265 45 66
131 192 190 280 256 376 590 863 745 1085 69 99 168 241 220 316 52 76 130
187 173 248 42 61 98 142 125 181 26 38 52 77 59 85 7 8 90 125 184 260 210
298 399 566 660 931 108 152 212 298 231 325 80 113 200 281 218 304 24 32
445 613 479 662 31 43 71 98 413 565 142 193 258 355 258 360 0 13 -349 270
-550 406 -623 420 -1237 723 -1909 941 -204 66 -504 148 -596 162 -22 3 -43 8
-47 10 -6 4 -77 19 -183 39 -45 9 -203 34 -245 40 -25 3 -52 8 -60 10 -8 2
-46 6 -83 10 -37 3 -76 8 -85 10 -9 1 -55 6 -102 10 -47 4 -98 9 -115 10 -149
15 -619 21 -785 11 -30 -2 -67 -4 -81 -5 -25 -1 -26 -5 -39 -88 -8 -49 -15
-92 -16 -98 -1 -5 -12 -64 -23 -130 -12 -66 -23 -133 -26 -150 -3 -16 -8 -36
-10 -42 -7 -21 18 -29 183 -59 49 -9 372 -93 457 -118 893 -268 1658 -719
2282 -1344 57 -57 103 -105 103 -107 0 -4 -135 -196 -214 -305 -14 -19 -180
-253 -370 -520 -190 -267 -348 -489 -353 -495 -5 -5 -19 -26 -33 -45 -32 -47
-454 -641 -504 -711 -57 -78 -108 -150 -235 -329 -60 -85 -121 -171 -135 -190
-14 -19 -264 -370 -555 -780 -291 -410 -541 -761 -555 -780 -14 -19 -53 -74
-88 -122 -35 -48 -100 -141 -146 -205 -46 -65 -154 -217 -240 -338 -251 -352
-395 -553 -430 -603 -136 -194 -566 -798 -621 -874 -54 -74 -131 -182 -236
-333 -27 -39 -62 -86 -77 -105 l-26 -34 -99 49 c-224 110 -537 250 -603 270
-14 4 -43 16 -65 26 -155 72 -631 223 -955 305 -99 25 -341 77 -431 93 -145
26 -162 29 -218 37 -25 4 -55 8 -66 10 -11 2 -45 6 -75 9 -30 4 -62 8 -70 10
-8 2 -44 7 -80 10 -36 3 -82 8 -102 11 -21 3 -64 7 -95 9 -115 8 -249 17 -308
21 -83 4 -550 4 -660 0 -136 -6 -388 -23 -445 -31 -19 -2 -64 -7 -100 -10 -36
-3 -101 -10 -145 -16 -44 -5 -98 -12 -120 -15 -22 -2 -51 -7 -65 -9 -14 -2
-45 -7 -70 -10 -25 -3 -110 -17 -190 -30 -80 -13 -163 -27 -185 -31 -22 -3
-98 -17 -170 -31 -71 -13 -141 -26 -155 -29 -14 -2 -115 -23 -225 -45 -110
-23 -209 -43 -220 -45 -11 -2 -72 -15 -135 -29 -63 -15 -126 -29 -140 -31 -14
-3 -61 -14 -105 -26 -44 -11 -91 -22 -105 -25 -25 -4 -67 -15 -305 -80 -71
-19 -139 -37 -150 -40 -19 -5 -105 -31 -192 -58 -24 -7 -43 -12 -43 -10 0 9
426 278 635 402 437 257 944 514 1380 700 72 30 144 61 160 68 17 7 62 25 100
40 39 15 84 33 100 40 119 51 552 204 755 267 97 30 393 117 420 123 8 2 68
17 134 35 65 17 129 34 142 36 12 2 87 19 166 38 79 19 170 39 203 45 92 17
105 20 113 24 4 3 30 8 57 11 28 4 57 9 65 11 19 5 47 10 200 36 160 26 167
27 215 33 22 3 49 7 60 10 11 2 47 7 80 11 33 5 67 9 75 10 8 1 44 5 80 9 36
4 76 9 90 11 14 2 61 7 105 11 44 3 87 8 95 9 9 2 58 6 110 10 52 4 111 8 130
10 32 3 181 11 375 21 98 4 698 4 815 0 135 -6 320 -16 380 -21 30 -3 83 -7
118 -10 60 -6 62 -5 63 17 0 13 2 32 4 43 4 19 31 202 41 275 3 19 7 46 9 60
2 14 7 45 10 70 4 25 8 56 10 70 3 14 14 90 25 169 11 79 22 154 25 165 2 12
7 41 10 66 3 25 7 56 9 70 8 43 72 478 81 548 3 20 9 64 15 97 8 51 25 165 35
240 2 11 8 49 14 85 5 36 13 88 17 115 3 28 8 59 10 70 2 10 6 37 9 60 13 89
56 372 60 395 3 14 9 59 15 101 6 41 12 84 14 95 5 24 14 87 21 139 3 23 7 52
10 65 3 13 7 42 10 65 4 22 8 51 10 65 22 140 48 317 56 370 5 36 12 76 14 90
2 14 7 43 10 65 4 22 8 51 10 65 2 14 9 57 15 95 6 39 13 81 15 95 2 14 6 43
10 65 3 23 7 50 9 60 5 28 15 92 22 140 3 22 10 66 15 98 6 32 12 73 14 90 2
18 7 50 10 72 4 22 9 54 11 70 3 17 9 55 14 85 5 30 12 73 15 95 3 23 8 52 10
65 3 14 8 48 11 75 4 28 8 53 10 56 1 3 6 28 9 55 6 41 22 149 61 389 2 17 6
41 9 55 3 14 7 48 10 75 4 28 8 57 10 65 3 8 14 76 25 150 11 74 22 144 24
155 2 11 7 42 10 68 4 27 9 57 11 67 2 9 6 35 10 56 11 74 15 99 20 124 3 14
7 45 10 70 3 25 7 56 10 70 7 34 58 351 79 490 3 19 7 44 10 55 3 19 13 78 21
135 2 14 11 66 19 115 8 50 17 108 21 130 3 22 7 47 10 55 2 8 6 35 9 60 3 25
8 56 11 70 2 13 7 42 10 65 7 43 9 59 30 180 8 44 17 100 20 125 4 25 13 81
20 125 8 44 17 100 20 125 3 25 8 52 10 60 2 8 7 33 10 55 3 23 7 52 10 65 3
14 7 39 10 55 3 17 7 44 10 60 3 17 8 48 11 70 2 22 7 51 10 65 3 14 8 43 10
65 3 22 7 47 10 55 3 8 8 33 10 55 3 22 21 132 40 245 20 113 37 219 39 237 2
17 8 57 14 90 6 32 13 75 17 97 5 37 7 48 18 106 3 14 8 41 10 60 5 33 90 537
100 590 2 14 8 48 12 75 4 28 9 57 10 65 2 8 6 31 9 50 4 19 9 51 11 70 2 19
6 46 9 60 9 41 13 66 19 104 6 35 5 36 -27 37 -17 0 -61 2 -97 5 -200 13 -282
15 -667 19 -232 1 -423 2 -425 0z"/>
<path d="M14558 13395 c-2 -2 -48 -6 -103 -10 -55 -3 -111 -8 -125 -10 -14 -2
-47 -6 -75 -10 -520 -62 -1021 -203 -1488 -419 -43 -20 -81 -36 -83 -36 -7 0
-426 -210 -509 -255 -84 -46 -138 -75 -185 -102 -19 -11 -62 -35 -95 -53 -227
-126 -833 -482 -1131 -665 -203 -124 -558 -355 -547 -355 21 0 151 44 360 121
409 152 826 281 1249 388 212 53 499 118 604 136 19 3 82 15 140 26 58 11 121
22 140 25 19 2 58 8 85 14 28 5 67 12 88 15 40 5 96 14 137 20 14 2 48 7 75
10 28 3 62 8 77 11 15 3 42 7 60 9 72 6 174 18 189 20 8 2 53 6 100 10 46 4
91 8 99 10 9 2 58 6 110 10 52 3 111 8 130 10 30 3 115 8 375 21 100 5 743 5
855 0 206 -9 365 -17 388 -21 l22 -4 0 525 0 524 -22 1 c-13 1 -32 3 -43 4
-11 1 -54 6 -95 9 -41 4 -100 10 -130 12 -60 6 -647 14 -652 9z"/>
<path d="M14088 11025 c-2 -1 -55 -5 -118 -9 -130 -7 -189 -13 -275 -26 -33
-5 -87 -12 -120 -16 -33 -3 -62 -8 -65 -9 -3 -2 -26 -6 -50 -10 -25 -3 -97
-18 -160 -31 -63 -14 -126 -28 -140 -30 -13 -3 -81 -21 -150 -40 -459 -129
-916 -328 -1525 -664 -114 -63 -215 -120 -300 -170 -49 -29 -110 -64 -135 -78
-67 -37 -207 -120 -277 -164 -34 -21 -64 -38 -67 -38 -24 0 -1016 -622 -1016
-637 0 -2 3 -2 8 0 4 2 45 17 92 32 82 26 334 117 375 135 27 12 502 171 540
181 17 4 68 19 115 34 47 14 92 28 100 30 44 10 359 96 385 104 17 6 48 13 70
17 22 3 43 8 48 11 4 2 19 7 34 9 15 3 66 14 113 25 102 25 82 20 265 58 83
16 166 33 185 36 19 3 42 8 50 10 13 4 69 13 125 20 11 2 47 8 80 14 33 6 78
13 100 16 22 3 51 8 65 10 50 9 88 14 255 35 94 11 186 23 205 25 19 2 64 7
100 10 36 3 85 8 110 10 98 9 169 15 250 20 47 3 117 7 155 10 240 16 797 22
1050 11 252 -12 362 -18 388 -22 21 -3 27 0 28 13 3 73 1 1024 -2 1027 -5 4
-83 14 -174 22 -33 3 -87 7 -120 10 -65 6 -592 14 -597 9z"/>
<path d="M13728 8655 c-2 -2 -52 -6 -112 -10 -60 -4 -117 -8 -126 -10 -9 -2
-46 -6 -82 -9 -37 -4 -76 -9 -88 -11 -12 -2 -48 -7 -79 -11 -31 -3 -58 -8 -61
-9 -3 -2 -26 -6 -50 -10 -188 -28 -516 -112 -740 -190 -179 -63 -515 -200
-596 -243 -11 -6 -100 -50 -199 -99 -164 -82 -262 -132 -385 -201 -25 -14 -74
-41 -110 -60 -36 -19 -72 -41 -81 -48 -8 -8 -19 -14 -24 -14 -5 0 -38 -17 -74
-39 -36 -21 -138 -80 -226 -131 -220 -128 -592 -348 -635 -375 -19 -12 -114
-71 -210 -130 -96 -60 -241 -152 -322 -204 -193 -126 -186 -121 -168 -117 35
10 187 58 205 66 79 34 628 228 665 235 3 1 57 17 120 37 114 36 281 86 310
93 8 2 57 15 108 29 123 35 241 64 463 115 150 35 172 40 209 47 14 3 79 16
145 29 201 40 504 90 665 110 30 4 62 9 70 10 8 1 44 6 80 10 36 3 76 8 90 10
97 13 273 30 530 49 401 31 998 36 1430 10 58 -3 125 -6 150 -7 l45 -2 2 523
c0 288 -1 521 -3 519 -3 -2 -24 -1 -47 4 -24 4 -81 11 -128 14 -46 4 -100 9
-119 11 -39 5 -617 13 -622 9z"/>
</g>
</svg>
